[Header]
FileType HTR
DataType HTRS
FileVersion 1
NumSegments 48
NumFrames 3
DataFrameRate 30
EulerRotationOrder ZYX
CalibrationUnits mm
RotationUnits Degrees
GlobalAxisofGravity Y
BoneLengthAxis Y
ScaleFactor 1.0
[SegmentNames&Hierarchy]
Wolf	GLOBAL
Becken	Wolf
Bauch	Becken
Bauch_001	Bauch
Brust	Bauch_001
Hals	Brust
Kopf_002	Hals
Kopf	Kopf_002
Unterkiefer	Kopf
Hals_fett	Unterkiefer
Maulunten	Unterkiefer
Mauloben	Kopf
MundW_L	Kopf
MundW_R	Kopf
Augen_con	Kopf
IK_Aug_R	Augen_con
IK_Aug_L	Augen_con
Aug_R	Kopf
aug_L	Kopf
Ohr_L	Kopf
Ohr_R	Kopf
Braun_O_L	Kopf
Braun_O_R	Kopf
aug_lied_O_L	Kopf
aug_lied_O_R	Kopf
aug_lied_U_L	Kopf
aug_lied_U_R	Kopf
Bauch_003	Brust
Schalterplatte_L	Bauch_003
Oberarm_L	Schalterplatte_L
Unterarm_L	Oberarm_L
Vorderpfote_L	Unterarm_L
Schalterplatte_R	Bauch_003
Oberarm_R	Schalterplatte_R
Unterarm_R	Oberarm_R
Vorderpfote_R	Unterarm_R
Schwanz	Becken
Schwanz_001	Schwanz
Schwanz_002	Schwanz_001
Schwanz_003	Schwanz_002
Oberschenkel_L	Becken
Unterschenkel_L	Oberschenkel_L
Pfote1_L	Unterschenkel_L
Pfote2_L	Pfote1_L
Oberschenkel_R	Becken
Unterschenkel_R	Oberschenkel_R
Pfote1_R	Unterschenkel_R
Pfote2_R	Pfote1_R
[BasePosition]
Wolf	0	0	0	0	0	0	1
Becken	0	0	0	0	0	0	1
Bauch	0	0	0	0	0	0	1
Bauch_001	0	0	0	0	0	0	1
Brust	0	0	0	0	0	0	1
Hals	0	0	0	0	0	0	1
Kopf_002	0	0	0	0	0	0	1
Kopf	0	0	0	0	0	0	1
Unterkiefer	0	0	0	0	0	0	1
Hals_fett	0	0	0	0	0	0	1
Maulunten	0	0	0	0	0	0	1
Mauloben	0	0	0	0	0	0	1
MundW_L	0	0	0	0	0	0	1
MundW_R	0	0	0	0	0	0	1
Augen_con	0	0	0	0	0	0	1
IK_Aug_R	0	0	0	0	0	0	1
IK_Aug_L	0	0	0	0	0	0	1
Aug_R	0	0	0	0	0	0	1
aug_L	0	0	0	0	0	0	1
Ohr_L	0	0	0	0	0	0	1
Ohr_R	0	0	0	0	0	0	1
Braun_O_L	0	0	0	0	0	0	1
Braun_O_R	0	0	0	0	0	0	1
aug_lied_O_L	0	0	0	0	0	0	1
aug_lied_O_R	0	0	0	0	0	0	1
aug_lied_U_L	0	0	0	0	0	0	1
aug_lied_U_R	0	0	0	0	0	0	1
Bauch_003	0	0	0	0	0	0	1
Schalterplatte_L	0	0	0	0	0	0	1
Oberarm_L	0	0	0	0	0	0	1
Unterarm_L	0	0	0	0	0	0	1
Vorderpfote_L	0	0	0	0	0	0	1
Schalterplatte_R	0	0	0	0	0	0	1
Oberarm_R	0	0	0	0	0	0	1
Unterarm_R	0	0	0	0	0	0	1
Vorderpfote_R	0	0	0	0	0	0	1
Schwanz	0	0	0	0	0	0	1
Schwanz_001	0	0	0	0	0	0	1
Schwanz_002	0	0	0	0	0	0	1
Schwanz_003	0	0	0	0	0	0	1
Oberschenkel_L	0	0	0	0	0	0	1
Unterschenkel_L	0	0	0	0	0	0	1
Pfote1_L	0	0	0	0	0	0	1
Pfote2_L	0	0	0	0	0	0	1
Oberschenkel_R	0	0	0	0	0	0	1
Unterschenkel_R	0	0	0	0	0	0	1
Pfote1_R	0	0	0	0	0	0	1
Pfote2_R	0	0	0	0	0	0	1
[Wolf]
7	0	0	0	-90	-0	0	1.0
8	0	0	0	-90	-0	0	1.0
9	0	0	0	-90	-0	0	1.0
[Becken]
7	0	-0.1439082026	1.361909986	-1.91564709e-06	169.3182526	90	1.0
8	0	-0.1156902239	1.34405601	-1.91564709e-06	174.6052551	90	1.0
9	0	-0.177074194	1.171460032	-1.91564709e-06	179.4337769	90	1.0
[Bauch]
7	1.2046628	7.68020243e-08	-0.2936323583	8.746882827e-07	-1.137638688	4.853698101e-07	1.0
8	1.271562696	7.68020243e-08	-0.1533384919	8.746882827e-07	-4.435285568	4.853698101e-07	1.0
9	1.240951777	7.68020243e-08	-0.1651339084	8.746882827e-07	-6.849420071	4.853698101e-07	1.0
[Bauch_001]
7	0.6035892367	4.020625255e-08	0.06737364829	1.051260369e-06	2.840871572	4.625552208e-08	1.0
8	0.6189680696	4.020625255e-08	0.02908173949	1.051260369e-06	2.337760687	4.625552208e-08	1.0
9	0.632997036	4.020625255e-08	-0.005845844746	1.051260369e-06	2.049255133	4.625552208e-08	1.0
[Brust]
7	1.079773784	8.38275227e-08	0.1820853502	-2.585561106e-06	19.4780426	-6.053789093e-06	1.0
8	1.075449944	8.38275227e-08	0.1093338281	-2.585561106e-06	16.7856102	-6.053789093e-06	1.0
9	1.071625113	8.38275227e-08	0.05220420659	-2.585561106e-06	14.67614841	-6.053789093e-06	1.0
[Hals]
7	1.455370188	9.550224433e-08	0.8834803104	-1.920878731e-06	22.82992363	-4.161266588e-06	1.0
8	1.485711932	9.550224433e-08	0.904229641	-1.920878731e-06	25.11527443	-4.161266588e-06	1.0
9	1.509540558	9.550224433e-08	0.920522511	-1.920878731e-06	26.90693474	-4.161266588e-06	1.0
[Kopf_002]
7	1.752594829	3.013231981e-05	0.2651812136	0.006653484888	-165.1497192	0.002557621803	1.0
8	1.752594829	3.013231981e-05	0.2651812136	0.006653484888	-165.1497192	0.002557621803	1.0
9	1.752594829	3.013231981e-05	0.2651812136	0.006653484888	-165.1497192	0.002557621803	1.0
[Kopf]
7	1.040861845	7.839815908e-08	-0.01260521077	0.07119785994	126.5627975	-0.02402999066	1.0
8	1.041505456	7.839815908e-08	-0.0059893406	0.07322192192	129.6258392	-0.02243318968	1.0
9	1.042149067	7.839815908e-08	-0.0007198544336	0.07464729995	132.0240631	-0.02134747617	1.0
[Unterkiefer]
7	0.6370446682	0.004552738741	0.4060619473	5.41272068	-68.38880157	-3.093541861	1.0
8	0.6370446682	0.004552738741	0.4060619473	5.41272068	-68.38880157	-3.093541861	1.0
9	0.6370446682	0.004552738741	0.4060619473	5.41272068	-68.38880157	-3.093541861	1.0
[Hals_fett]
7	0.2998236716	0.007747383788	0.1206455454	-5.071650982	-59.35961151	5.585565567	1.0
8	0.2998236716	0.007747383788	0.1206455454	-5.071650982	-59.35961151	5.585565567	1.0
9	0.2998236716	0.007747383788	0.1206455454	-5.071650982	-59.35961151	5.585565567	1.0
[Maulunten]
7	0.08317924291	-0.007747320924	-0.1206462979	-3.322208881	38.97270966	-0.8718757033	1.0
8	0.08317924291	-0.007747320924	-0.1206462979	-3.322208881	38.97270966	-0.8718757033	1.0
9	0.08317924291	-0.007747320924	-0.1206462979	-3.322208881	38.97270966	-0.8718757033	1.0
[Mauloben]
7	0.9101490974	0.0004056780017	0.400369823	-0.103267692	-28.77768707	0.0354314521	1.0
8	0.9101490974	0.0004056780017	0.400369823	-0.103267692	-28.77768707	0.0354314521	1.0
9	0.9101490974	0.0004056780017	0.400369823	-0.103267692	-28.77768707	0.0354314521	1.0
[MundW_L]
7	0.6730612516	-0.3618556559	0.3751283288	-179.8370972	-17.94884682	24.71397018	1.0
8	0.6730612516	-0.3618556559	0.3751283288	-179.8370972	-17.94884682	24.71397018	1.0
9	0.6730612516	-0.3618556559	0.3751283288	-179.8370972	-17.94884682	24.71397018	1.0
[MundW_R]
7	0.6732413769	0.362703532	0.3739836514	179.665329	-18.0242691	-24.69084167	1.0
8	0.6732413769	0.362703532	0.3739836514	179.665329	-18.0242691	-24.69084167	1.0
9	0.6732413769	0.362703532	0.3739836514	179.665329	-18.0242691	-24.69084167	1.0
[Augen_con]
7	1.807373762	-0.0001604075951	0.1835815907	0.09822228551	157.1545258	0.02385941148	1.0
8	1.807373762	-0.0001604075951	0.1835815907	0.09822228551	157.1545258	0.02385941148	1.0
9	1.807373762	-0.0001604075951	0.1835815907	0.09822228551	157.1545258	0.02385941148	1.0
[IK_Aug_R]
7	0.3461297154	0.2943200171	3.136494797e-07	-0.4194768965	-4.963055134	165.6946411	1.0
8	0.3461297154	0.2943200171	3.136494797e-07	-0.4194768965	-4.963055134	165.6946411	1.0
9	0.3461297154	0.2943200171	3.136494797e-07	-0.4194768965	-4.963055134	165.6946411	1.0
[IK_Aug_L]
7	0.3461298645	-0.2943200171	3.034585916e-07	0.4194775522	-4.963055611	-165.6946411	1.0
8	0.3461298645	-0.2943200171	3.034585916e-07	0.4194775522	-4.963055611	-165.6946411	1.0
9	0.3461298645	-0.2943200171	3.034585916e-07	0.4194775522	-4.963055611	-165.6946411	1.0
[Aug_R]
7	1.035154939	0.220780611	-0.09605786204	176.004776	-17.29164886	12.85548782	1.0
8	1.035154939	0.220780611	-0.09605786204	176.004776	-17.29164886	12.85548782	1.0
9	1.035154939	0.220780611	-0.09605786204	176.004776	-17.29164886	12.85548782	1.0
[aug_L]
7	1.035047412	-0.2215989083	-0.09536846727	-176.1891174	-17.33176422	-12.83101749	1.0
8	1.035047412	-0.2215989083	-0.09536846727	-176.1891174	-17.33176422	-12.83101749	1.0
9	1.035047412	-0.2215989083	-0.09536846727	-176.1891174	-17.33176422	-12.83101749	1.0
[Ohr_L]
7	0.6407766938	-0.365999192	-0.6893325448	-24.34924316	53.07766342	-15.02013397	1.0
8	0.6407766938	-0.365999192	-0.6893325448	-24.34924316	53.07766342	-15.02013397	1.0
9	0.6407766938	-0.365999192	-0.6893325448	-24.34924316	53.07766342	-15.02013397	1.0
[Ohr_R]
7	0.6409586668	0.3634999394	-0.6904851198	24.05786133	53.12416458	14.75857353	1.0
8	0.6409586668	0.3634999394	-0.6904851198	24.05786133	53.12416458	14.75857353	1.0
9	0.6409586668	0.3634999394	-0.6904851198	24.05786133	53.12416458	14.75857353	1.0
[Braun_O_L]
7	0.9801893234	-0.3706049621	-0.3292511106	-143.317215	-34.69634628	52.39493942	1.0
8	0.9801893234	-0.3706049621	-0.3292511106	-143.317215	-34.69634628	52.39493942	1.0
9	0.9801893234	-0.3706049621	-0.3292511106	-143.317215	-34.69634628	52.39493942	1.0
[Braun_O_R]
7	0.9803637862	0.369074285	-0.3304226696	143.182663	-34.83971786	-52.3467598	1.0
8	0.9803637862	0.369074285	-0.3304226696	143.182663	-34.83971786	-52.3467598	1.0
9	0.9803637862	0.369074285	-0.3304226696	143.182663	-34.83971786	-52.3467598	1.0
[aug_lied_O_L]
7	1.038882613	-0.3271434009	-0.1608110666	-175.8613434	-20.15596771	60.31667709	1.0
8	1.038882613	-0.3271434009	-0.1608110666	-175.8613434	-20.15596771	60.31667709	1.0
9	1.038882613	-0.3271434009	-0.1608110666	-175.8613434	-20.15596771	60.31667709	1.0
[aug_lied_O_R]
7	1.039044976	0.326115787	-0.1618431509	175.7657928	-20.31323814	-60.31218338	1.0
8	1.039044976	0.326115787	-0.1618431509	175.7657928	-20.31323814	-60.31218338	1.0
9	1.039044976	0.326115787	-0.1618431509	175.7657928	-20.31323814	-60.31218338	1.0
[aug_lied_U_L]
7	1.021916747	-0.3312866092	-0.1338487417	-159.8099365	-28.7482872	60.17462158	1.0
8	1.021916747	-0.3312866092	-0.1338487417	-159.8099365	-28.7482872	60.17462158	1.0
9	1.021916747	-0.3312866092	-0.1338487417	-159.8099365	-28.7482872	60.17462158	1.0
[aug_lied_U_R]
7	1.022078514	0.3303526044	-0.1348845363	159.7071381	-28.90531921	-60.15359879	1.0
8	1.022078514	0.3303526044	-0.1348845363	159.7071381	-28.90531921	-60.15359879	1.0
9	1.022078514	0.3303526044	-0.1348845363	159.7071381	-28.90531921	-60.15359879	1.0
[Bauch_003]
7	1.276869178	9.640092458e-08	-0.6079563498	-3.938861937e-06	-137.6799469	1.017604518e-05	1.0
8	1.276869178	9.640092458e-08	-0.6079563498	-3.938861937e-06	-137.6799469	1.017604518e-05	1.0
9	1.276869178	9.640092458e-08	-0.6079563498	-3.938861937e-06	-137.6799469	1.017604518e-05	1.0
[Schalterplatte_L]
7	0.8925708532	-0.3820799291	2.05982893e-08	-42.48691559	74.87042999	-75.83909607	1.0
8	0.8925708532	-0.3820799291	2.05982893e-08	-60.69862747	77.1543045	-92.06097412	1.0
9	0.8925708532	-0.3820799291	2.05982893e-08	-64.48553467	78.5182724	-92.5688324	1.0
[Oberarm_L]
7	1.418637037	6.984918599e-08	2.142041922e-07	-128.4950409	-51.1885376	159.6779633	1.0
8	1.418637037	6.984918599e-08	2.142041922e-07	-128.5560608	-51.68015671	159.0875702	1.0
9	1.418637037	6.984918599e-08	2.142041922e-07	-126.9660645	-55.27102661	152.5034637	1.0
[Unterarm_L]
7	2.028227091	1.769512892e-07	2.468004823e-07	15.74230289	52.34072495	22.8103447	1.0
8	2.028227091	1.769512892e-07	2.468004823e-07	15.86808109	50.1218605	24.88358879	1.0
9	2.028227091	1.769512892e-07	2.468004823e-07	13.59575081	48.89795303	22.21605301	1.0
[Vorderpfote_L]
7	1.705947876	2.095475793e-07	-1.816079021e-07	-1.213913679	-10.0627861	2.655606985	1.0
8	1.705947876	2.095475793e-07	-1.816079021e-07	-3.966918707	-28.63077927	6.186451435	1.0
9	1.705947876	2.095475793e-07	-1.816079021e-07	-5.629011631	-34.68023682	7.956674099	1.0
[Schalterplatte_R]
7	0.892570734	0.3820800781	8.883210967e-08	11.12318611	73.62651062	44.78470612	1.0
8	0.892570734	0.3820800781	8.883210967e-08	36.45810699	78.39513397	70.25836182	1.0
9	0.892570734	0.3820800781	8.883210967e-08	32.90508652	76.57297516	65.66983032	1.0
[Oberarm_R]
7	1.418637633	1.862644972e-08	1.862644972e-08	82.97759247	-58.80809021	-105.8944473	1.0
8	1.418637633	1.862644972e-08	1.862644972e-08	91.44365692	-56.82265472	-116.5511856	1.0
9	1.418637633	1.862644972e-08	1.862644972e-08	90.39586639	-54.99959183	-112.3147354	1.0
[Unterarm_R]
7	2.028232336	9.313225746e-08	-3.247987479e-07	-3.424656391	52.43104553	-4.1584692	1.0
8	2.028232336	9.313225746e-08	-3.247987479e-07	-4.224251747	50.24977112	-6.458863258	1.0
9	2.028232336	9.313225746e-08	-3.247987479e-07	-2.770697117	44.51293564	-4.882305622	1.0
[Vorderpfote_R]
7	1.705937147	1.11758709e-07	-3.015156835e-07	11.61817265	32.00444031	1.382406116	1.0
8	1.705937147	1.11758709e-07	-3.015156835e-07	12.52681541	-20.11389732	-1.976079941	1.0
9	1.705937147	1.11758709e-07	-3.015156835e-07	13.09451389	-45.80464935	-2.744232416	1.0
[Schwanz]
7	-0.2032856643	-7.265629876e-09	0.04631716013	3.552960157	-109.4528122	-4.456607342	1.0
8	-0.3048141897	-7.265629876e-09	-0.05951294675	4.260592937	-106.3866882	-5.127250195	1.0
9	-0.3056744039	-7.265629876e-09	-0.03430638835	4.338386059	-106.1548691	-5.205142975	1.0
[Schwanz_001]
7	0.9104328156	6.635672634e-08	-8.707502275e-08	-0.5946855545	-47.5920372	-1.035906792	1.0
8	0.9104328156	6.635672634e-08	-8.707502275e-08	-0.5651451349	-44.72014236	-1.024046779	1.0
9	0.9104328156	6.635672634e-08	-8.707502275e-08	-0.5207077861	-40.33052063	-1.003203511	1.0
[Schwanz_002]
7	0.7855660915	6.082701276e-08	-2.382875941e-08	0.8387750387	-28.97980881	-1.170880795	1.0
8	0.7855660915	6.082701276e-08	-2.382875941e-08	0.8219827414	-26.7296772	-1.134170175	1.0
9	0.7855660915	6.082701276e-08	-2.382875941e-08	0.7999768257	-23.3139267	-1.080911875	1.0
[Schwanz_003]
7	0.8350354433	5.987204332e-08	5.614651855e-08	8.880763289e-07	-11.60312271	-8.974389942e-08	1.0
8	0.8350354433	5.987204332e-08	5.614651855e-08	8.880763289e-07	-11.60312271	-8.974389942e-08	1.0
9	0.8350354433	5.987204332e-08	5.614651855e-08	8.880763289e-07	-11.60312271	-8.974389942e-08	1.0
[Oberschenkel_L]
7	0.2125499994	-0.5834400654	0.2139289975	15.23652172	-61.17739105	-9.799647331	1.0
8	0.3051221967	-0.5834400654	0.1483524889	16.04919815	-63.22047424	-10.71153927	1.0
9	0.3778115511	-0.5834400654	0.09685850143	14.94632244	-58.56451035	-9.375350952	1.0
[Unterschenkel_L]
7	1.686439037	1.338776201e-07	-7.450580597e-08	-118.2856903	-72.16703033	133.2908936	1.0
8	1.686439037	1.338776201e-07	-7.450580597e-08	-65.916008	-70.52733612	78.00967407	1.0
9	1.686439037	1.338776201e-07	-7.450580597e-08	-36.02628326	-67.8634491	46.3888092	1.0
[Pfote1_L]
7	1.190900326	9.313225746e-08	1.065200195e-07	-3.932999611	66.16470337	-13.44288349	1.0
8	1.190900326	9.313225746e-08	1.065200195e-07	-0.02636716329	53.43903351	-9.060159683	1.0
9	1.190900326	9.313225746e-08	1.065200195e-07	1.27936542	45.71294022	-7.459433079	1.0
[Pfote2_L]
7	0.9876260161	9.313225746e-08	-5.820770088e-09	-4.785226345	-18.78326416	-4.541077137	1.0
8	0.9876260161	9.313225746e-08	-5.820770088e-09	-2.932542086	-4.8253479	-4.64814949	1.0
9	0.9876260161	9.313225746e-08	-5.820770088e-09	-2.342877626	2.222615719	-4.571839809	1.0
[Oberschenkel_R]
7	0.3079037368	0.5836999416	0.2818454504	-10.28464603	-27.20608521	3.009604931	1.0
8	0.4004769921	0.5836999416	0.2162748277	-10.55738163	-31.49500465	3.538814306	1.0
9	0.4731709957	0.5836999416	0.164784044	-11.23035526	-39.22646713	4.652489185	1.0
[Unterschenkel_R]
7	1.68644917	1.234002411e-07	9.313230187e-09	-129.3469543	-110.2839584	120.0056152	1.0
8	1.68644917	1.234002411e-07	9.313230187e-09	-145.0737457	-116.784462	136.533783	1.0
9	1.68644917	1.234002411e-07	9.313230187e-09	-155.1392975	-121.3328781	146.8705597	1.0
[Pfote1_R]
7	1.190900326	4.656610209e-09	5.355104804e-08	-1.623298526	7.082251549	7.677166462	1.0
8	1.190900326	4.656610209e-09	5.355104804e-08	-1.689484239	12.80764484	7.346201897	1.0
9	1.190900326	4.656610209e-09	5.355104804e-08	-2.210999966	27.88049126	6.235195637	1.0
[Pfote2_R]
7	0.9876259565	8.381903172e-08	1.071020961e-07	8.301615715	39.46830368	8.068956375	1.0
8	0.9876259565	8.381903172e-08	1.071020961e-07	5.866021156	30.53395653	6.14390707	1.0
9	0.9876259565	8.381903172e-08	1.071020961e-07	3.780094862	22.74568176	5.661424637	1.0
[EndOfFile]
